# xmcd CD database file
#
# Track frame offsets:
#	187
#	10799
#	23399
#	38874
#	54462
#	67699
#	81712
#	94229
#	119237
#	132544
#	152374
#	166259
#	180697
#	196567
#	214884
#	225847
#	246134
#	256744
#	270162
#	290637
#
# Disc length: 4037 seconds
#
# Revision: 3
# Processed by: cddbd v1.5.2PL0 Copyright (c) Steve Scherf et al.
# Submitted via: CDex 1.70beta2
#
DISCID=040fc314
DTITLE=Louis Armstrong - ルイ・アームストロング
DYEAR=1988
DGENRE=Jazz
TTITLE0=What A Wonderful World
TTITLE1=Cabaret
TTITLE2=La Vie En Rose
TTITLE3=I Get Ideas
TTITLE4=Takes Two To Tango
TTITLE5=Kiss Of Fire
TTITLE6=Ramona
TTITLE7=Otchi-Tchor-Ni-Ya
TTITLE8=Sincerely
TTITLE9=When The Saints Go Marching In
TTITLE10=C'Est Si Bon
TTITLE11=Only You
TTITLE12=Memories Of You
TTITLE13=When You're Smiling
TTITLE14=Hello Dolly!
TTITLE15=Kiss To Build A Dream On
TTITLE16=It's Been A Long, Long, Time
TTITLE17=Moon River
TTITLE18=On The Sunny Side Of The Street
TTITLE19=April In Portugal
EXTD=YEAR: 1988
EXTT0=
EXTT1=
EXTT2=
EXTT3=
EXTT4=
EXTT5=
EXTT6=
EXTT7=
EXTT8=
EXTT9=
EXTT10=
EXTT11=
EXTT12=
EXTT13=
EXTT14=
EXTT15=
EXTT16=
EXTT17=
EXTT18=
EXTT19=
PLAYORDER=
